<mxfile host="Electron" modified="2023-11-29T07:42:31.794Z" agent="Mozilla/5.0 (Windows NT 10.0; Win64; x64) AppleWebKit/537.36 (KHTML, like Gecko) draw.io/22.1.2 Chrome/114.0.5735.289 Electron/25.9.4 Safari/537.36" etag="dr3JUUCwLfHwD94UvJ-l" version="22.1.2" type="device">
  <diagram name="Страница — 1" id="5F6HhKPpFTmccYrzjPrv">
    <mxGraphModel dx="579" dy="690" grid="1" gridSize="10" guides="1" tooltips="1" connect="1" arrows="1" fold="1" page="1" pageScale="1" pageWidth="827" pageHeight="1169" math="0" shadow="0">
      <root>
        <mxCell id="0" />
        <mxCell id="1" parent="0" />
        <mxCell id="pS42CtYCij7j-v7LeXHe-3" value="" style="edgeStyle=orthogonalEdgeStyle;rounded=0;orthogonalLoop=1;jettySize=auto;html=1;" parent="1" target="pS42CtYCij7j-v7LeXHe-2" edge="1">
          <mxGeometry relative="1" as="geometry">
            <mxPoint x="360" y="210" as="sourcePoint" />
          </mxGeometry>
        </mxCell>
        <mxCell id="pS42CtYCij7j-v7LeXHe-5" value="" style="edgeStyle=orthogonalEdgeStyle;rounded=0;orthogonalLoop=1;jettySize=auto;html=1;" parent="1" source="pS42CtYCij7j-v7LeXHe-2" target="pS42CtYCij7j-v7LeXHe-4" edge="1">
          <mxGeometry relative="1" as="geometry" />
        </mxCell>
        <mxCell id="pS42CtYCij7j-v7LeXHe-2" value="&lt;div&gt;int result =&amp;nbsp;&lt;span style=&quot;background-color: initial;&quot;&gt;1&lt;/span&gt;&lt;/div&gt;&lt;div&gt;&lt;br&gt;&lt;/div&gt;" style="rounded=0;whiteSpace=wrap;html=1;" parent="1" vertex="1">
          <mxGeometry x="300" y="290" width="120" height="60" as="geometry" />
        </mxCell>
        <mxCell id="pS42CtYCij7j-v7LeXHe-9" value="" style="edgeStyle=orthogonalEdgeStyle;rounded=0;orthogonalLoop=1;jettySize=auto;html=1;" parent="1" source="pS42CtYCij7j-v7LeXHe-4" edge="1">
          <mxGeometry relative="1" as="geometry">
            <mxPoint x="360" y="590" as="targetPoint" />
          </mxGeometry>
        </mxCell>
        <mxCell id="pS42CtYCij7j-v7LeXHe-11" value="False" style="edgeLabel;html=1;align=center;verticalAlign=middle;resizable=0;points=[];" parent="pS42CtYCij7j-v7LeXHe-9" vertex="1" connectable="0">
          <mxGeometry x="-0.1691" y="-3" relative="1" as="geometry">
            <mxPoint as="offset" />
          </mxGeometry>
        </mxCell>
        <mxCell id="pS42CtYCij7j-v7LeXHe-34" value="" style="edgeStyle=orthogonalEdgeStyle;rounded=0;orthogonalLoop=1;jettySize=auto;html=1;" parent="1" source="pS42CtYCij7j-v7LeXHe-4" target="pS42CtYCij7j-v7LeXHe-33" edge="1">
          <mxGeometry relative="1" as="geometry" />
        </mxCell>
        <mxCell id="pS42CtYCij7j-v7LeXHe-37" value="True" style="edgeLabel;html=1;align=center;verticalAlign=middle;resizable=0;points=[];" parent="pS42CtYCij7j-v7LeXHe-34" vertex="1" connectable="0">
          <mxGeometry x="-0.4607" y="1" relative="1" as="geometry">
            <mxPoint as="offset" />
          </mxGeometry>
        </mxCell>
        <mxCell id="pS42CtYCij7j-v7LeXHe-4" value="num == 0" style="rhombus;whiteSpace=wrap;html=1;rounded=0;" parent="1" vertex="1">
          <mxGeometry x="270" y="420" width="180" height="80" as="geometry" />
        </mxCell>
        <mxCell id="pS42CtYCij7j-v7LeXHe-10" value="num &amp;lt;= 1" style="rhombus;whiteSpace=wrap;html=1;rounded=0;" parent="1" vertex="1">
          <mxGeometry x="270" y="590" width="180" height="80" as="geometry" />
        </mxCell>
        <mxCell id="pS42CtYCij7j-v7LeXHe-12" value="" style="endArrow=classic;html=1;rounded=0;exitX=0.5;exitY=1;exitDx=0;exitDy=0;" parent="1" source="pS42CtYCij7j-v7LeXHe-10" edge="1">
          <mxGeometry width="50" height="50" relative="1" as="geometry">
            <mxPoint x="380" y="750" as="sourcePoint" />
            <mxPoint x="360" y="720" as="targetPoint" />
            <Array as="points" />
          </mxGeometry>
        </mxCell>
        <mxCell id="pS42CtYCij7j-v7LeXHe-14" value="False" style="edgeLabel;html=1;align=center;verticalAlign=middle;resizable=0;points=[];" parent="pS42CtYCij7j-v7LeXHe-12" vertex="1" connectable="0">
          <mxGeometry x="-0.056" y="-1" relative="1" as="geometry">
            <mxPoint as="offset" />
          </mxGeometry>
        </mxCell>
        <mxCell id="pS42CtYCij7j-v7LeXHe-13" value="" style="verticalLabelPosition=bottom;verticalAlign=top;html=1;shape=hexagon;perimeter=hexagonPerimeter2;arcSize=6;size=0.27;" parent="1" vertex="1">
          <mxGeometry x="285" y="720" width="150" height="60" as="geometry" />
        </mxCell>
        <mxCell id="pS42CtYCij7j-v7LeXHe-16" value="i * i &amp;lt;= num" style="edgeLabel;html=1;align=center;verticalAlign=middle;resizable=0;points=[];" parent="1" vertex="1" connectable="0">
          <mxGeometry x="370" y="750" as="geometry">
            <mxPoint x="-12" as="offset" />
          </mxGeometry>
        </mxCell>
        <mxCell id="pS42CtYCij7j-v7LeXHe-17" value="" style="endArrow=classic;html=1;rounded=0;exitX=0.5;exitY=1;exitDx=0;exitDy=0;" parent="1" source="pS42CtYCij7j-v7LeXHe-13" edge="1">
          <mxGeometry width="50" height="50" relative="1" as="geometry">
            <mxPoint x="364" y="860" as="sourcePoint" />
            <mxPoint x="360" y="850" as="targetPoint" />
          </mxGeometry>
        </mxCell>
        <mxCell id="pS42CtYCij7j-v7LeXHe-18" value="num % i == 0" style="rhombus;whiteSpace=wrap;html=1;rounded=0;" parent="1" vertex="1">
          <mxGeometry x="270" y="960" width="180" height="80" as="geometry" />
        </mxCell>
        <mxCell id="pS42CtYCij7j-v7LeXHe-19" value="" style="endArrow=classic;html=1;rounded=0;exitX=0;exitY=0.5;exitDx=0;exitDy=0;entryX=0;entryY=0.5;entryDx=0;entryDy=0;" parent="1" source="pS42CtYCij7j-v7LeXHe-18" target="pS42CtYCij7j-v7LeXHe-13" edge="1">
          <mxGeometry width="50" height="50" relative="1" as="geometry">
            <mxPoint x="240" y="890" as="sourcePoint" />
            <mxPoint x="290" y="840" as="targetPoint" />
            <Array as="points">
              <mxPoint x="200" y="1000" />
              <mxPoint x="200" y="750" />
            </Array>
          </mxGeometry>
        </mxCell>
        <mxCell id="pS42CtYCij7j-v7LeXHe-20" value="false" style="edgeLabel;html=1;align=center;verticalAlign=middle;resizable=0;points=[];" parent="pS42CtYCij7j-v7LeXHe-19" vertex="1" connectable="0">
          <mxGeometry x="-0.0551" y="3" relative="1" as="geometry">
            <mxPoint as="offset" />
          </mxGeometry>
        </mxCell>
        <mxCell id="pS42CtYCij7j-v7LeXHe-22" value="" style="edgeStyle=orthogonalEdgeStyle;rounded=0;orthogonalLoop=1;jettySize=auto;html=1;" parent="1" source="pS42CtYCij7j-v7LeXHe-21" target="pS42CtYCij7j-v7LeXHe-18" edge="1">
          <mxGeometry relative="1" as="geometry" />
        </mxCell>
        <mxCell id="pS42CtYCij7j-v7LeXHe-21" value="i++" style="rounded=0;whiteSpace=wrap;html=1;" parent="1" vertex="1">
          <mxGeometry x="300" y="850" width="120" height="60" as="geometry" />
        </mxCell>
        <mxCell id="pS42CtYCij7j-v7LeXHe-23" value="" style="endArrow=classic;html=1;rounded=0;exitX=0.5;exitY=1;exitDx=0;exitDy=0;" parent="1" source="pS42CtYCij7j-v7LeXHe-18" target="pS42CtYCij7j-v7LeXHe-24" edge="1">
          <mxGeometry width="50" height="50" relative="1" as="geometry">
            <mxPoint x="380" y="1070" as="sourcePoint" />
            <mxPoint x="360" y="1100" as="targetPoint" />
          </mxGeometry>
        </mxCell>
        <mxCell id="pS42CtYCij7j-v7LeXHe-29" value="True" style="edgeLabel;html=1;align=center;verticalAlign=middle;resizable=0;points=[];" parent="pS42CtYCij7j-v7LeXHe-23" vertex="1" connectable="0">
          <mxGeometry x="-0.1846" y="-1" relative="1" as="geometry">
            <mxPoint as="offset" />
          </mxGeometry>
        </mxCell>
        <mxCell id="pS42CtYCij7j-v7LeXHe-26" value="" style="edgeStyle=orthogonalEdgeStyle;rounded=0;orthogonalLoop=1;jettySize=auto;html=1;" parent="1" source="pS42CtYCij7j-v7LeXHe-24" target="pS42CtYCij7j-v7LeXHe-25" edge="1">
          <mxGeometry relative="1" as="geometry" />
        </mxCell>
        <mxCell id="pS42CtYCij7j-v7LeXHe-24" value="result = 0" style="rounded=0;whiteSpace=wrap;html=1;" parent="1" vertex="1">
          <mxGeometry x="300" y="1080" width="120" height="60" as="geometry" />
        </mxCell>
        <mxCell id="pS42CtYCij7j-v7LeXHe-28" value="" style="edgeStyle=orthogonalEdgeStyle;rounded=0;orthogonalLoop=1;jettySize=auto;html=1;" parent="1" source="pS42CtYCij7j-v7LeXHe-25" target="pS42CtYCij7j-v7LeXHe-27" edge="1">
          <mxGeometry relative="1" as="geometry" />
        </mxCell>
        <mxCell id="pS42CtYCij7j-v7LeXHe-25" value="break" style="rounded=0;whiteSpace=wrap;html=1;" parent="1" vertex="1">
          <mxGeometry x="300" y="1220" width="120" height="60" as="geometry" />
        </mxCell>
        <mxCell id="pS42CtYCij7j-v7LeXHe-32" value="" style="edgeStyle=orthogonalEdgeStyle;rounded=0;orthogonalLoop=1;jettySize=auto;html=1;" parent="1" source="pS42CtYCij7j-v7LeXHe-27" target="pS42CtYCij7j-v7LeXHe-31" edge="1">
          <mxGeometry relative="1" as="geometry" />
        </mxCell>
        <mxCell id="pS42CtYCij7j-v7LeXHe-27" value="resturn result" style="rounded=0;whiteSpace=wrap;html=1;" parent="1" vertex="1">
          <mxGeometry x="300" y="1360" width="120" height="60" as="geometry" />
        </mxCell>
        <mxCell id="pS42CtYCij7j-v7LeXHe-31" value="Кінець" style="ellipse;whiteSpace=wrap;html=1;" parent="1" vertex="1">
          <mxGeometry x="300" y="1470" width="120" height="80" as="geometry" />
        </mxCell>
        <mxCell id="pS42CtYCij7j-v7LeXHe-33" value="return 0" style="whiteSpace=wrap;html=1;rounded=0;" parent="1" vertex="1">
          <mxGeometry x="820" y="430" width="120" height="60" as="geometry" />
        </mxCell>
        <mxCell id="pS42CtYCij7j-v7LeXHe-36" value="" style="endArrow=classic;html=1;rounded=0;exitX=0.5;exitY=1;exitDx=0;exitDy=0;entryX=0.988;entryY=0.643;entryDx=0;entryDy=0;entryPerimeter=0;" parent="1" source="pS42CtYCij7j-v7LeXHe-33" target="pS42CtYCij7j-v7LeXHe-31" edge="1">
          <mxGeometry width="50" height="50" relative="1" as="geometry">
            <mxPoint x="580" y="740" as="sourcePoint" />
            <mxPoint x="600" y="1520" as="targetPoint" />
            <Array as="points">
              <mxPoint x="880" y="1520" />
            </Array>
          </mxGeometry>
        </mxCell>
        <mxCell id="pS42CtYCij7j-v7LeXHe-38" value="" style="endArrow=classic;html=1;rounded=0;exitX=1;exitY=0.5;exitDx=0;exitDy=0;" parent="1" source="pS42CtYCij7j-v7LeXHe-10" target="pS42CtYCij7j-v7LeXHe-39" edge="1">
          <mxGeometry width="50" height="50" relative="1" as="geometry">
            <mxPoint x="460" y="640" as="sourcePoint" />
            <mxPoint x="530" y="630" as="targetPoint" />
          </mxGeometry>
        </mxCell>
        <mxCell id="pS42CtYCij7j-v7LeXHe-42" value="True" style="edgeLabel;html=1;align=center;verticalAlign=middle;resizable=0;points=[];" parent="pS42CtYCij7j-v7LeXHe-38" vertex="1" connectable="0">
          <mxGeometry x="-0.2549" relative="1" as="geometry">
            <mxPoint as="offset" />
          </mxGeometry>
        </mxCell>
        <mxCell id="pS42CtYCij7j-v7LeXHe-39" value="result = 0" style="rounded=0;whiteSpace=wrap;html=1;" parent="1" vertex="1">
          <mxGeometry x="519.9999999999999" y="600" width="120" height="60" as="geometry" />
        </mxCell>
        <mxCell id="pS42CtYCij7j-v7LeXHe-41" value="" style="endArrow=classic;html=1;rounded=0;exitX=0.5;exitY=1;exitDx=0;exitDy=0;entryX=1;entryY=0.5;entryDx=0;entryDy=0;" parent="1" source="pS42CtYCij7j-v7LeXHe-39" target="pS42CtYCij7j-v7LeXHe-27" edge="1">
          <mxGeometry width="50" height="50" relative="1" as="geometry">
            <mxPoint x="550" y="790" as="sourcePoint" />
            <mxPoint x="480" y="1390" as="targetPoint" />
            <Array as="points">
              <mxPoint x="580" y="1390" />
            </Array>
          </mxGeometry>
        </mxCell>
        <mxCell id="pS42CtYCij7j-v7LeXHe-43" value="" style="strokeWidth=2;html=1;shape=mxgraph.flowchart.annotation_2;align=left;labelPosition=right;pointerEvents=1;" parent="1" vertex="1">
          <mxGeometry x="1010" y="410" width="50" height="100" as="geometry" />
        </mxCell>
        <mxCell id="pS42CtYCij7j-v7LeXHe-45" value="Якщо число дорівнює нулю - програма &lt;br&gt;завершує роботу&amp;nbsp;" style="text;html=1;align=center;verticalAlign=middle;resizable=0;points=[];autosize=1;strokeColor=none;fillColor=none;" parent="1" vertex="1">
          <mxGeometry x="1060" y="440" width="240" height="40" as="geometry" />
        </mxCell>
        <mxCell id="pS42CtYCij7j-v7LeXHe-46" value="" style="endArrow=none;dashed=1;html=1;dashPattern=1 3;strokeWidth=2;rounded=0;exitX=1;exitY=0.5;exitDx=0;exitDy=0;entryX=0;entryY=0.5;entryDx=0;entryDy=0;entryPerimeter=0;" parent="1" source="pS42CtYCij7j-v7LeXHe-33" target="pS42CtYCij7j-v7LeXHe-43" edge="1">
          <mxGeometry width="50" height="50" relative="1" as="geometry">
            <mxPoint x="960" y="500" as="sourcePoint" />
            <mxPoint x="1010" y="450" as="targetPoint" />
          </mxGeometry>
        </mxCell>
        <mxCell id="pS42CtYCij7j-v7LeXHe-47" value="" style="strokeWidth=2;html=1;shape=mxgraph.flowchart.annotation_2;align=left;labelPosition=right;pointerEvents=1;" parent="1" vertex="1">
          <mxGeometry x="710" y="580" width="50" height="100" as="geometry" />
        </mxCell>
        <mxCell id="pS42CtYCij7j-v7LeXHe-48" value="" style="endArrow=none;dashed=1;html=1;dashPattern=1 3;strokeWidth=2;rounded=0;entryX=0;entryY=0.5;entryDx=0;entryDy=0;entryPerimeter=0;" parent="1" target="pS42CtYCij7j-v7LeXHe-47" edge="1">
          <mxGeometry width="50" height="50" relative="1" as="geometry">
            <mxPoint x="640" y="629" as="sourcePoint" />
            <mxPoint x="670" y="629" as="targetPoint" />
          </mxGeometry>
        </mxCell>
        <mxCell id="pS42CtYCij7j-v7LeXHe-51" value="Якщо число &lt;br&gt;менше або &lt;br&gt;дорівнює 1, то воно не &lt;br&gt;є простим" style="text;html=1;align=center;verticalAlign=middle;resizable=0;points=[];autosize=1;strokeColor=none;fillColor=none;" parent="1" vertex="1">
          <mxGeometry x="740" y="590" width="150" height="70" as="geometry" />
        </mxCell>
        <mxCell id="pS42CtYCij7j-v7LeXHe-52" value="" style="strokeWidth=2;html=1;shape=mxgraph.flowchart.annotation_2;align=left;labelPosition=right;pointerEvents=1;" parent="1" vertex="1">
          <mxGeometry x="960" y="700" width="50" height="100" as="geometry" />
        </mxCell>
        <mxCell id="pS42CtYCij7j-v7LeXHe-53" value="" style="endArrow=none;dashed=1;html=1;dashPattern=1 3;strokeWidth=2;rounded=0;exitX=1;exitY=0.5;exitDx=0;exitDy=0;entryX=0.32;entryY=0.535;entryDx=0;entryDy=0;entryPerimeter=0;" parent="1" source="pS42CtYCij7j-v7LeXHe-13" target="pS42CtYCij7j-v7LeXHe-52" edge="1">
          <mxGeometry width="50" height="50" relative="1" as="geometry">
            <mxPoint x="480" y="775" as="sourcePoint" />
            <mxPoint x="530" y="725" as="targetPoint" />
          </mxGeometry>
        </mxCell>
        <mxCell id="pS42CtYCij7j-v7LeXHe-54" value="В інакшому випадку, збільшуємо змінну&amp;nbsp; поки квадрат &lt;br&gt;i менше або дорівнює числу num" style="text;html=1;align=center;verticalAlign=middle;resizable=0;points=[];autosize=1;strokeColor=none;fillColor=none;" parent="1" vertex="1">
          <mxGeometry x="1035" y="730" width="320" height="40" as="geometry" />
        </mxCell>
        <mxCell id="pS42CtYCij7j-v7LeXHe-55" value="" style="strokeWidth=2;html=1;shape=mxgraph.flowchart.annotation_2;align=left;labelPosition=right;pointerEvents=1;" parent="1" vertex="1">
          <mxGeometry x="930" y="950" width="50" height="100" as="geometry" />
        </mxCell>
        <mxCell id="pS42CtYCij7j-v7LeXHe-56" value="Перевірка числа на парність" style="text;html=1;align=center;verticalAlign=middle;resizable=0;points=[];autosize=1;strokeColor=none;fillColor=none;" parent="1" vertex="1">
          <mxGeometry x="960" y="985" width="180" height="30" as="geometry" />
        </mxCell>
        <mxCell id="pS42CtYCij7j-v7LeXHe-57" value="" style="endArrow=none;dashed=1;html=1;dashPattern=1 3;strokeWidth=2;rounded=0;exitX=1;exitY=0.5;exitDx=0;exitDy=0;entryX=0;entryY=0.5;entryDx=0;entryDy=0;entryPerimeter=0;" parent="1" source="pS42CtYCij7j-v7LeXHe-18" target="pS42CtYCij7j-v7LeXHe-55" edge="1">
          <mxGeometry width="50" height="50" relative="1" as="geometry">
            <mxPoint x="480" y="1010" as="sourcePoint" />
            <mxPoint x="530" y="960" as="targetPoint" />
          </mxGeometry>
        </mxCell>
        <mxCell id="pS42CtYCij7j-v7LeXHe-58" value="" style="strokeWidth=2;html=1;shape=mxgraph.flowchart.annotation_2;align=left;labelPosition=right;pointerEvents=1;" parent="1" vertex="1">
          <mxGeometry x="920" y="1070" width="50" height="100" as="geometry" />
        </mxCell>
        <mxCell id="pS42CtYCij7j-v7LeXHe-59" value="" style="endArrow=none;dashed=1;html=1;dashPattern=1 3;strokeWidth=2;rounded=0;exitX=1.008;exitY=0.592;exitDx=0;exitDy=0;exitPerimeter=0;entryX=0;entryY=0.5;entryDx=0;entryDy=0;entryPerimeter=0;" parent="1" source="pS42CtYCij7j-v7LeXHe-24" target="pS42CtYCij7j-v7LeXHe-58" edge="1">
          <mxGeometry width="50" height="50" relative="1" as="geometry">
            <mxPoint x="450" y="1120" as="sourcePoint" />
            <mxPoint x="500" y="1070" as="targetPoint" />
          </mxGeometry>
        </mxCell>
        <mxCell id="pS42CtYCij7j-v7LeXHe-60" value="Знайдено дільник, отже число&lt;br&gt;&amp;nbsp;не є простим" style="text;html=1;align=center;verticalAlign=middle;resizable=0;points=[];autosize=1;strokeColor=none;fillColor=none;" parent="1" vertex="1">
          <mxGeometry x="940" y="1100" width="190" height="40" as="geometry" />
        </mxCell>
        <mxCell id="pS42CtYCij7j-v7LeXHe-61" value="" style="strokeWidth=2;html=1;shape=mxgraph.flowchart.annotation_2;align=left;labelPosition=right;pointerEvents=1;" parent="1" vertex="1">
          <mxGeometry x="940" y="1200" width="50" height="100" as="geometry" />
        </mxCell>
        <mxCell id="pS42CtYCij7j-v7LeXHe-62" value="" style="endArrow=none;dashed=1;html=1;dashPattern=1 3;strokeWidth=2;rounded=0;exitX=1;exitY=0.5;exitDx=0;exitDy=0;" parent="1" source="pS42CtYCij7j-v7LeXHe-25" target="pS42CtYCij7j-v7LeXHe-61" edge="1">
          <mxGeometry width="50" height="50" relative="1" as="geometry">
            <mxPoint x="460" y="1270" as="sourcePoint" />
            <mxPoint x="510" y="1220" as="targetPoint" />
          </mxGeometry>
        </mxCell>
        <mxCell id="pS42CtYCij7j-v7LeXHe-63" value="Зупиняємо цикл" style="text;html=1;align=center;verticalAlign=middle;resizable=0;points=[];autosize=1;strokeColor=none;fillColor=none;" parent="1" vertex="1">
          <mxGeometry x="965" y="1228" width="110" height="30" as="geometry" />
        </mxCell>
        <mxCell id="pS42CtYCij7j-v7LeXHe-64" value="" style="strokeWidth=2;html=1;shape=mxgraph.flowchart.annotation_2;align=left;labelPosition=right;pointerEvents=1;" parent="1" vertex="1">
          <mxGeometry x="950" y="1340" width="50" height="100" as="geometry" />
        </mxCell>
        <mxCell id="pS42CtYCij7j-v7LeXHe-65" value="" style="endArrow=none;dashed=1;html=1;dashPattern=1 3;strokeWidth=2;rounded=0;exitX=1;exitY=0.5;exitDx=0;exitDy=0;entryX=0;entryY=0.5;entryDx=0;entryDy=0;entryPerimeter=0;" parent="1" source="pS42CtYCij7j-v7LeXHe-27" target="pS42CtYCij7j-v7LeXHe-64" edge="1">
          <mxGeometry width="50" height="50" relative="1" as="geometry">
            <mxPoint x="600" y="1415" as="sourcePoint" />
            <mxPoint x="650" y="1365" as="targetPoint" />
          </mxGeometry>
        </mxCell>
        <mxCell id="pS42CtYCij7j-v7LeXHe-66" value="Функція повертає значення result&amp;nbsp;" style="text;html=1;align=center;verticalAlign=middle;resizable=0;points=[];autosize=1;strokeColor=none;fillColor=none;" parent="1" vertex="1">
          <mxGeometry x="970" y="1370" width="210" height="30" as="geometry" />
        </mxCell>
        <mxCell id="pS42CtYCij7j-v7LeXHe-67" value="" style="strokeWidth=2;html=1;shape=mxgraph.flowchart.annotation_2;align=left;labelPosition=right;pointerEvents=1;" parent="1" vertex="1">
          <mxGeometry x="680" y="270" width="50" height="100" as="geometry" />
        </mxCell>
        <mxCell id="pS42CtYCij7j-v7LeXHe-68" value="" style="endArrow=none;dashed=1;html=1;dashPattern=1 3;strokeWidth=2;rounded=0;exitX=1;exitY=0.5;exitDx=0;exitDy=0;entryX=0;entryY=0.5;entryDx=0;entryDy=0;entryPerimeter=0;" parent="1" source="pS42CtYCij7j-v7LeXHe-2" target="pS42CtYCij7j-v7LeXHe-67" edge="1">
          <mxGeometry width="50" height="50" relative="1" as="geometry">
            <mxPoint x="490" y="340" as="sourcePoint" />
            <mxPoint x="540" y="290" as="targetPoint" />
          </mxGeometry>
        </mxCell>
        <mxCell id="pS42CtYCij7j-v7LeXHe-69" value="Ініцілізуємо змінну&amp;nbsp;" style="text;html=1;align=center;verticalAlign=middle;resizable=0;points=[];autosize=1;strokeColor=none;fillColor=none;" parent="1" vertex="1">
          <mxGeometry x="710" y="310" width="130" height="30" as="geometry" />
        </mxCell>
        <mxCell id="Bs2ieaa-5WZ9XIszxC7R-1" value="Початок" style="ellipse;whiteSpace=wrap;html=1;" vertex="1" parent="1">
          <mxGeometry x="300" y="130" width="120" height="80" as="geometry" />
        </mxCell>
      </root>
    </mxGraphModel>
  </diagram>
</mxfile>
